<?xml version="1.0"?>
<svg xmlns="http://www.w3.org/2000/svg" viewBox="0 0 24 24" width="24px" height="24px">
    <path style="line-height:normal;text-indent:0;text-align:start;text-decoration-line:none;text-decoration-style:solid;text-decoration-color:#000;text-transform:none;block-progression:tb;isolation:auto;mix-blend-mode:normal" d="M 11.199219 0.80078125 C 10.991219 0.80078125 10.787766 0.88120312 10.634766 1.0332031 L 8.234375 3.4335938 C 7.922375 3.7465937 7.921375 4.2544062 8.234375 4.5664062 L 10.634766 6.9667969 C 10.863766 7.1957969 11.207813 7.263625 11.507812 7.140625 C 11.806812 7.015625 12 6.7243906 12 6.4003906 L 12 5 C 15.877484 5 19 8.1225161 19 12 C 19 12.615932 18.91864 13.210633 18.767578 13.777344 A 1.0005817 1.0005817 0 1 0 20.701172 14.292969 C 20.896107 13.56168 21 12.792068 21 12 C 21 7.0414839 16.958516 3 12 3 L 12 1.5996094 C 12 1.2766094 11.805859 0.98532813 11.505859 0.86132812 C 11.406859 0.82032812 11.302219 0.80078125 11.199219 0.80078125 z M 2.9902344 1.9902344 A 1.0001 1.0001 0 0 0 2.2929688 3.7070312 L 20.292969 21.707031 A 1.0001 1.0001 0 1 0 21.707031 20.292969 L 3.7070312 2.2929688 A 1.0001 1.0001 0 0 0 2.9902344 1.9902344 z M 4.1972656 8.9960938 A 1.0001 1.0001 0 0 0 3.2851562 9.7578125 C 3.099429 10.473707 3 11.22576 3 12 C 3 16.958516 7.0414839 21 12 21 L 12 22.400391 C 12 22.723391 12.194141 23.014672 12.494141 23.138672 C 12.593141 23.179672 12.697781 23.199219 12.800781 23.199219 C 13.008781 23.199219 13.212234 23.118797 13.365234 22.966797 L 15.765625 20.566406 C 16.077625 20.253406 16.078625 19.746594 15.765625 19.433594 L 13.365234 17.033203 C 13.136234 16.804203 12.792187 16.736375 12.492188 16.859375 C 12.193188 16.984375 12 17.276609 12 17.599609 L 12 19 C 8.1225161 19 5 15.877484 5 12 C 5 11.39824 5.0783836 10.815871 5.2226562 10.259766 A 1.0001 1.0001 0 0 0 4.296875 8.9960938 A 1.0001 1.0001 0 0 0 4.1972656 8.9960938 z"/>
</svg>
